<svg width="173" height="26" viewBox="0 0 173 26" fill="none" xmlns="http://www.w3.org/2000/svg">
<path d="M7.608 21.192C8.312 21.192 8.888 21.1387 9.336 21.032C9.80533 20.904 10.1787 20.744 10.456 20.552C10.7333 20.3387 10.9253 20.0933 11.032 19.816C11.1387 19.5387 11.192 19.2293 11.192 18.888C11.192 18.1627 10.8507 17.5653 10.168 17.096C9.48533 16.6053 8.312 16.0827 6.648 15.528C5.92267 15.272 5.19733 14.984 4.472 14.664C3.74667 14.3227 3.096 13.9067 2.52 13.416C1.944 12.904 1.47467 12.296 1.112 11.592C0.749333 10.8667 0.568 9.992 0.568 8.968C0.568 7.944 0.76 7.02667 1.144 6.216C1.528 5.384 2.072 4.68 2.776 4.104C3.48 3.528 4.33333 3.09067 5.336 2.792C6.33867 2.472 7.46933 2.312 8.728 2.312C10.2213 2.312 11.512 2.472 12.6 2.792C13.688 3.112 14.584 3.464 15.288 3.848L13.848 7.784C13.2293 7.464 12.536 7.18667 11.768 6.952C11.0213 6.696 10.1147 6.568 9.048 6.568C7.85333 6.568 6.98933 6.73867 6.456 7.08C5.944 7.4 5.688 7.90133 5.688 8.584C5.688 8.98933 5.784 9.33067 5.976 9.608C6.168 9.88533 6.43467 10.1413 6.776 10.376C7.13867 10.5893 7.544 10.792 7.992 10.984C8.46133 11.1547 8.97333 11.336 9.528 11.528C10.68 11.9547 11.6827 12.3813 12.536 12.808C13.3893 13.2133 14.0933 13.6933 14.648 14.248C15.224 14.8027 15.6507 15.4533 15.928 16.2C16.2053 16.9467 16.344 17.8533 16.344 18.92C16.344 20.9893 15.6187 22.6 14.168 23.752C12.7173 24.8827 10.5307 25.448 7.608 25.448C6.62667 25.448 5.74133 25.384 4.952 25.256C4.16267 25.1493 3.45867 25.0107 2.84 24.84C2.24267 24.6693 1.72 24.488 1.272 24.296C0.845333 24.104 0.482667 23.9227 0.184 23.752L1.592 19.784C2.25333 20.1467 3.064 20.4773 4.024 20.776C5.00533 21.0533 6.2 21.192 7.608 21.192ZM19.065 3.976L23.833 3.208V8.168H29.561V12.136H23.833V18.056C23.833 19.0587 24.0037 19.8587 24.345 20.456C24.7077 21.0533 25.4223 21.352 26.489 21.352C27.001 21.352 27.5237 21.3093 28.057 21.224C28.6117 21.1173 29.113 20.9787 29.561 20.808L30.233 24.52C29.657 24.7547 29.017 24.9573 28.313 25.128C27.609 25.2987 26.745 25.384 25.721 25.384C24.4197 25.384 23.3423 25.2133 22.489 24.872C21.6357 24.5093 20.953 24.0187 20.441 23.4C19.929 22.76 19.5663 21.992 19.353 21.096C19.161 20.2 19.065 19.208 19.065 18.12V3.976ZM47.9228 16.552C47.9228 17.8747 47.7308 19.0907 47.3468 20.2C46.9628 21.288 46.4081 22.2267 45.6827 23.016C44.9574 23.784 44.0828 24.3813 43.0588 24.808C42.0561 25.2347 40.9254 25.448 39.6667 25.448C38.4294 25.448 37.2987 25.2347 36.2747 24.808C35.2721 24.3813 34.4081 23.784 33.6827 23.016C32.9574 22.2267 32.3921 21.288 31.9867 20.2C31.5814 19.0907 31.3787 17.8747 31.3787 16.552C31.3787 15.2293 31.5814 14.024 31.9867 12.936C32.4134 11.848 32.9894 10.92 33.7147 10.152C34.4614 9.384 35.3361 8.78667 36.3387 8.36C37.3627 7.93333 38.4721 7.72 39.6667 7.72C40.8828 7.72 41.9921 7.93333 42.9948 8.36C44.0188 8.78667 44.8934 9.384 45.6187 10.152C46.3441 10.92 46.9094 11.848 47.3148 12.936C47.7201 14.024 47.9228 15.2293 47.9228 16.552ZM43.0588 16.552C43.0588 15.08 42.7601 13.928 42.1628 13.096C41.5868 12.2427 40.7547 11.816 39.6667 11.816C38.5787 11.816 37.7361 12.2427 37.1387 13.096C36.5414 13.928 36.2427 15.08 36.2427 16.552C36.2427 18.024 36.5414 19.1973 37.1387 20.072C37.7361 20.9253 38.5787 21.352 39.6667 21.352C40.7547 21.352 41.5868 20.9253 42.1628 20.072C42.7601 19.1973 43.0588 18.024 43.0588 16.552ZM50.1763 16.584C50.1763 15.368 50.3683 14.2267 50.7523 13.16C51.1576 12.072 51.7336 11.1333 52.4803 10.344C53.2269 9.53333 54.1336 8.89333 55.2003 8.424C56.2669 7.95467 57.4829 7.72 58.8483 7.72C59.7443 7.72 60.5656 7.80533 61.3123 7.976C62.0589 8.12533 62.7843 8.34933 63.4883 8.648L62.4963 12.456C62.0483 12.2853 61.5576 12.136 61.0243 12.008C60.4909 11.88 59.8936 11.816 59.2323 11.816C57.8243 11.816 56.7683 12.2533 56.0643 13.128C55.3816 14.0027 55.0403 15.1547 55.0403 16.584C55.0403 18.0987 55.3603 19.272 56.0003 20.104C56.6616 20.936 57.8029 21.352 59.4243 21.352C60.0003 21.352 60.6189 21.2987 61.2803 21.192C61.9416 21.0853 62.5496 20.9147 63.1043 20.68L63.7763 24.584C63.2216 24.8187 62.5283 25.0213 61.6963 25.192C60.8643 25.3627 59.9469 25.448 58.9443 25.448C57.4083 25.448 56.0856 25.224 54.9763 24.776C53.8669 24.3067 52.9496 23.6773 52.2243 22.888C51.5203 22.0987 50.9976 21.1707 50.6563 20.104C50.3363 19.016 50.1763 17.8427 50.1763 16.584ZM71.1043 14.248C71.5736 13.736 72.0536 13.2027 72.5443 12.648C73.0563 12.0933 73.5469 11.5493 74.0163 11.016C74.4856 10.4613 74.9229 9.93867 75.3283 9.448C75.7549 8.95733 76.1176 8.53067 76.4163 8.168H82.0803C80.9496 9.46933 79.8403 10.7173 78.7523 11.912C77.6856 13.0853 76.5123 14.3013 75.2323 15.56C75.8723 16.136 76.5336 16.8293 77.2163 17.64C77.8989 18.4293 78.5603 19.2507 79.2003 20.104C79.8403 20.9573 80.4269 21.8107 80.9603 22.664C81.4936 23.5173 81.9416 24.296 82.3043 25H76.8323C76.4909 24.4453 76.0963 23.8373 75.6483 23.176C75.2216 22.4933 74.7629 21.8213 74.2723 21.16C73.7816 20.4773 73.2589 19.8267 72.7043 19.208C72.1709 18.5893 71.6376 18.0667 71.1043 17.64V25H66.3363V0.935999L71.1043 0.167999V14.248ZM91.5235 0.167999C92.4195 0.167999 93.1555 0.242666 93.7315 0.391998C94.3288 0.541332 94.8302 0.701333 95.2355 0.872L94.4035 4.616C94.0622 4.46667 93.6782 4.36 93.2515 4.296C92.8462 4.232 92.4302 4.2 92.0035 4.2C91.4275 4.2 90.9368 4.28533 90.5315 4.456C90.1475 4.60533 89.8382 4.81867 89.6035 5.096C89.3902 5.37333 89.2302 5.704 89.1235 6.088C89.0382 6.472 88.9955 6.888 88.9955 7.336V8.168H94.8835V12.136H88.9955V25H84.2275V7.272C84.2275 5.096 84.8355 3.368 86.0515 2.088C87.2888 0.807999 89.1128 0.167999 91.5235 0.167999ZM102.404 25H97.6355V8.168H102.404V25ZM102.852 3.304C102.852 4.17867 102.564 4.872 101.988 5.384C101.433 5.87467 100.772 6.12 100.004 6.12C99.2355 6.12 98.5635 5.87467 97.9875 5.384C97.4328 4.872 97.1555 4.17867 97.1555 3.304C97.1555 2.42933 97.4328 1.74667 97.9875 1.256C98.5635 0.743999 99.2355 0.487999 100.004 0.487999C100.772 0.487999 101.433 0.743999 101.988 1.256C102.564 1.74667 102.852 2.42933 102.852 3.304ZM106.244 8.744C107.054 8.50933 108.1 8.296 109.38 8.104C110.66 7.89067 112.004 7.784 113.412 7.784C114.841 7.784 116.025 7.976 116.964 8.36C117.924 8.72267 118.681 9.24533 119.236 9.928C119.79 10.6107 120.185 11.4213 120.42 12.36C120.654 13.2987 120.772 14.344 120.772 15.496V25H116.004V16.072C116.004 14.536 115.801 13.448 115.396 12.808C114.99 12.168 114.233 11.848 113.124 11.848C112.782 11.848 112.42 11.8693 112.036 11.912C111.652 11.9333 111.31 11.9653 111.012 12.008V25H106.244V8.744ZM128.511 16.456C128.511 17.928 128.842 19.112 129.503 20.008C130.165 20.904 131.146 21.352 132.447 21.352C132.874 21.352 133.269 21.3413 133.631 21.32C133.994 21.2773 134.293 21.2347 134.527 21.192V12.52C134.229 12.328 133.834 12.168 133.343 12.04C132.874 11.912 132.394 11.848 131.903 11.848C129.642 11.848 128.511 13.384 128.511 16.456ZM139.295 24.456C138.869 24.584 138.378 24.712 137.823 24.84C137.269 24.9467 136.682 25.0427 136.063 25.128C135.466 25.2133 134.847 25.2773 134.207 25.32C133.589 25.384 132.991 25.416 132.415 25.416C131.029 25.416 129.791 25.2133 128.703 24.808C127.615 24.4027 126.698 23.8267 125.951 23.08C125.205 22.312 124.629 21.3947 124.223 20.328C123.839 19.24 123.647 18.024 123.647 16.68C123.647 15.3147 123.818 14.088 124.159 13C124.501 11.8907 124.991 10.952 125.631 10.184C126.271 9.416 127.05 8.82933 127.967 8.424C128.906 8.01867 129.973 7.816 131.167 7.816C131.829 7.816 132.415 7.88 132.927 8.008C133.461 8.136 133.994 8.31733 134.527 8.552V0.935999L139.295 0.167999V24.456ZM142.32 16.712C142.32 15.2187 142.544 13.9173 142.992 12.808C143.461 11.6773 144.069 10.7387 144.816 9.992C145.563 9.24533 146.416 8.68 147.376 8.296C148.357 7.912 149.36 7.72 150.384 7.72C152.773 7.72 154.661 8.456 156.048 9.928C157.435 11.3787 158.128 13.5227 158.128 16.36C158.128 16.6373 158.117 16.9467 158.096 17.288C158.075 17.608 158.053 17.896 158.032 18.152H147.216C147.323 19.1333 147.781 19.912 148.592 20.488C149.403 21.064 150.491 21.352 151.856 21.352C152.731 21.352 153.584 21.2773 154.416 21.128C155.269 20.9573 155.963 20.7547 156.496 20.52L157.136 24.392C156.88 24.52 156.539 24.648 156.112 24.776C155.685 24.904 155.205 25.0107 154.672 25.096C154.16 25.2027 153.605 25.288 153.008 25.352C152.411 25.416 151.813 25.448 151.216 25.448C149.701 25.448 148.379 25.224 147.248 24.776C146.139 24.328 145.211 23.72 144.464 22.952C143.739 22.1627 143.195 21.2347 142.832 20.168C142.491 19.1013 142.32 17.9493 142.32 16.712ZM153.52 14.888C153.499 14.4827 153.424 14.088 153.296 13.704C153.189 13.32 153.008 12.9787 152.752 12.68C152.517 12.3813 152.208 12.136 151.824 11.944C151.461 11.752 151.003 11.656 150.448 11.656C149.915 11.656 149.456 11.752 149.072 11.944C148.688 12.1147 148.368 12.3493 148.112 12.648C147.856 12.9467 147.653 13.2987 147.504 13.704C147.376 14.088 147.28 14.4827 147.216 14.888H153.52ZM171.312 12.392C170.885 12.2853 170.384 12.1787 169.808 12.072C169.232 11.944 168.613 11.88 167.952 11.88C167.653 11.88 167.29 11.912 166.864 11.976C166.458 12.0187 166.149 12.072 165.936 12.136V25H161.168V9.064C162.021 8.76533 163.024 8.488 164.176 8.232C165.349 7.95467 166.65 7.816 168.08 7.816C168.336 7.816 168.645 7.83733 169.008 7.88C169.37 7.90133 169.733 7.944 170.096 8.008C170.458 8.05067 170.821 8.11467 171.184 8.2C171.546 8.264 171.856 8.34933 172.112 8.456L171.312 12.392Z" fill="black"/>
</svg>
